<?xml version="1.0" encoding="UTF-8"?>
<svg id="Camada_1" xmlns="http://www.w3.org/2000/svg" viewBox="0 0 200 118.43">
  <defs>
    <style>
      .cls-1 {
        fill: #313131;
      }

      .cls-2 {
        fill: #0d3a1f;
      }
    </style>
  </defs>
  <path class="cls-2" d="M4.38,62.94V17.74h9.77l19.06,28.77v-28.77h9.77v45.2h-9.77l-19.06-28.71v28.71H4.38Z"/>
  <path class="cls-2" d="M49.95,53.96c0-5.62,3.97-9.1,11.3-9.65l8.55-.67v-.49c0-2.99-1.83-4.58-5.19-4.58-3.97,0-6.11,1.53-6.11,4.28h-7.82c0-6.9,5.68-11.42,14.42-11.42s13.87,4.95,13.87,13.68v17.84h-8.31l-.61-4.03c-.98,2.81-5.01,4.83-9.59,4.83-6.48,0-10.51-3.79-10.51-9.77ZM69.86,51.52v-1.65l-4.76.43c-4.09.37-5.56,1.28-5.56,3.24,0,2.2,1.34,3.24,4.22,3.24,3.6,0,6.11-1.77,6.11-5.25Z"/>
  <path class="cls-2" d="M88.31,62.94v-22.72h-5.8v-7.82h5.8v-9.47h9.41v9.47h5.8v7.82h-5.8v22.72h-9.41Z"/>
  <path class="cls-2" d="M131.73,32.4v30.54h-8.86l-.61-3.42c-1.89,2.5-5.68,4.21-9.35,4.21-6.96,0-11.24-4.64-11.24-12.16v-19.18h9.41v15.76c0,5.01,1.71,7.21,5.56,7.21s5.68-2.08,5.68-7.09v-15.88h9.41Z"/>
  <path class="cls-2" d="M42.99,108.27v-37.95h14.36c11.13,0,18.87,7.79,18.87,19.08s-7.54,18.87-18.36,18.87h-14.87ZM51.3,78.02v22.56h5.74c6.56,0,10.41-4.15,10.41-11.18s-4.05-11.38-10.92-11.38h-5.23Z"/>
  <path class="cls-2" d="M72.72,92.94c0-9.53,6.41-16.19,15.64-16.19s15.58,6.29,15.58,16.25v2.38l-22.17.12c.55,4.03,2.81,5.93,6.96,5.93,3.54,0,6.05-1.28,6.72-3.48h8.61c-1.1,6.78-7.15,11.12-15.52,11.12-9.22,0-15.82-6.72-15.82-16.13ZM81.88,89.7h12.71c0-3.24-2.38-5.31-6.17-5.31s-5.8,1.65-6.54,5.31Z"/>
  <path class="cls-2" d="M103.03,108.27l10.26-14.78-10.26-15.76h10.87l5.62,9.28,5.25-9.28h10.51l-10.08,15.58,9.71,14.97h-10.81l-5.25-8.8-5.13,8.8h-10.69Z"/>
  <g>
    <path class="cls-1" d="M171.53,105.83c-19.33,2.52-52.81-14.09-22.47-29.2,34.05-24.24,78.78,28.93,22.47,29.2Z"/>
    <path class="cls-1" d="M161.66,46.98c-8.52,1.88-40.6,13.33-20.66,21.15,25.79,12.79,79.73-25.49,20.66-21.15Z"/>
    <path class="cls-1" d="M150.41,44.9c-14.91-1.57-12.53-17.57,1.53-18.78,8.45-2.94,33.68,6.85,20.47,16.21-6.49,3.53-13.5,3.61-22,2.56Z"/>
  </g>
</svg>