<?xml version="1.0" encoding="UTF-8"?>
<svg id="Camada_1" xmlns="http://www.w3.org/2000/svg" viewBox="0 0 500 250">
  <defs>
    <style>
      .cls-1 {
        fill: #313131;
      }

      .cls-2 {
        fill: #0d3a1f;
      }
    </style>
  </defs>
  <path class="cls-2" d="M33.98,179.22v-71.43h15.44l30.12,45.46v-45.46h15.44v71.43h-15.44l-30.12-45.37v45.37h-15.44Z"/>
  <path class="cls-2" d="M105.98,165.03c0-8.88,6.27-14.38,17.86-15.25l13.51-1.06v-.77c0-4.73-2.9-7.24-8.21-7.24-6.27,0-9.65,2.41-9.65,6.76h-12.36c0-10.91,8.98-18.05,22.78-18.05s21.91,7.82,21.91,21.62v28.19h-13.13l-.96-6.37c-1.54,4.44-7.92,7.63-15.16,7.63-10.23,0-16.6-5.98-16.6-15.44ZM137.44,161.17v-2.61l-7.53.68c-6.47.58-8.78,2.03-8.78,5.12,0,3.47,2.12,5.12,6.66,5.12,5.69,0,9.65-2.8,9.65-8.3Z"/>
  <path class="cls-2" d="M166.59,179.22v-35.91h-9.17v-12.36h9.17v-14.96h14.86v14.96h9.17v12.36h-9.17v35.91h-14.86Z"/>
  <path class="cls-2" d="M235.2,130.96v48.26h-14l-.96-5.41c-2.99,3.96-8.98,6.66-14.77,6.66-11,0-17.76-7.34-17.76-19.21v-30.31h14.87v24.9c0,7.91,2.7,11.39,8.78,11.39s8.98-3.28,8.98-11.2v-25.1h14.86Z"/>
  <path class="cls-2" d="M240.57,179.22v-59.96h22.69c17.58,0,29.82,12.32,29.82,30.14s-11.91,29.82-29.01,29.82h-23.5ZM253.69,131.41v35.65h9.08c10.37,0,16.45-6.56,16.45-17.66s-6.4-17.99-17.26-17.99h-8.27Z"/>
  <path class="cls-2" d="M287.55,154.99c0-15.06,10.14-25.58,24.71-25.58s24.61,9.94,24.61,25.68v3.76l-35.04.19c.87,6.37,4.44,9.36,11,9.36,5.6,0,9.56-2.03,10.62-5.5h13.61c-1.74,10.71-11.29,17.57-24.52,17.57-14.58,0-25-10.62-25-25.48ZM302.03,149.88h20.08c0-5.12-3.76-8.4-9.75-8.4s-9.17,2.61-10.33,8.4Z"/>
  <path class="cls-2" d="M335.44,179.22l16.22-23.36-16.22-24.9h17.18l8.88,14.67,8.3-14.67h16.6l-15.93,24.61,15.35,23.65h-17.09l-8.3-13.9-8.11,13.9h-16.89Z"/>
  <g>
    <path class="cls-1" d="M429.08,176.02c-26.65,3.48-72.82-19.43-30.98-40.26,46.95-33.43,108.63,39.89,30.98,40.26Z"/>
    <path class="cls-1" d="M415.47,94.87c-11.75,2.6-55.99,18.38-28.48,29.16,35.56,17.63,109.94-35.15,28.48-29.16Z"/>
    <path class="cls-1" d="M399.96,92.01c-20.57-2.16-17.27-24.22,2.11-25.89,11.65-4.06,46.43,9.44,28.23,22.35-8.95,4.87-18.62,4.97-30.33,3.53Z"/>
  </g>
</svg>